<svg xmlns="http://www.w3.org/2000/svg" version="1.1" xmlns:xlink="http://www.w3.org/1999/xlink" xmlns:svgjs="http://svgjs.com/svgjs" width="1440" height="560" preserveAspectRatio="none" viewBox="0 0 1440 560"><g clip-path="url(&quot;#SvgjsClipPath1002&quot;)" fill="none"><rect width="1440" height="560" x="0" y="0" fill="rgba(4, 115, 140, 1)"></rect><circle r="93.335" cx="-45.55" cy="4.5" stroke="#53a7c2" stroke-opacity="1" stroke-width="2"></circle><circle r="93.335" cx="331.5" cy="287.95" stroke="#53a7c2" stroke-opacity="1" stroke-width="2"></circle><circle r="93.335" cx="734.13" cy="792.4" stroke="#53a7c2" stroke-opacity="1" stroke-width="2"></circle><circle r="76.535" cx="989.19" cy="163.46" stroke="#53a7c2" stroke-opacity="1" stroke-width="2"></circle><circle r="167.355" cx="54.3" cy="433.33" stroke="#53a7c2" stroke-opacity="1" stroke-width="2"></circle><circle r="135.825" cx="702.95" cy="42.53" stroke="#53a7c2" stroke-opacity="1" stroke-width="2"></circle><circle r="123.625" cx="764.13" cy="327.69" stroke="#53a7c2" stroke-opacity="1" stroke-width="2"></circle><circle r="120.165" cx="1022.86" cy="494.03" stroke="#53a7c2" stroke-opacity="1" stroke-width="2"></circle><circle r="85.885" cx="209.55" cy="465.07" stroke="#53a7c2" stroke-opacity="1" stroke-width="2"></circle><circle r="133.06" cx="959.51" cy="157.99" stroke="#53a7c2" stroke-opacity="1" stroke-width="2"></circle><circle r="73.11" cx="1012.5" cy="142.47" stroke="#53a7c2" stroke-opacity="1" stroke-width="2"></circle><circle r="80.94" cx="1080.73" cy="180.41" stroke="#53a7c2" stroke-opacity="1" stroke-width="2"></circle><circle r="152.63" cx="951.91" cy="21.71" stroke="#53a7c2" stroke-opacity="1" stroke-width="2"></circle><circle r="183.47" cx="1137.16" cy="200.82" stroke="#53a7c2" stroke-opacity="1" stroke-width="2"></circle><circle r="90.385" cx="1353.31" cy="166.69" stroke="#53a7c2" stroke-opacity="1" stroke-width="2"></circle><circle r="113.38" cx="257.2" cy="126.74" stroke="#53a7c2" stroke-opacity="1" stroke-width="2"></circle><circle r="168.335" cx="1334.64" cy="74.39" stroke="#53a7c2" stroke-opacity="1" stroke-width="2"></circle><circle r="49.15" cx="737.72" cy="401.5" stroke="#53a7c2" stroke-opacity="1" stroke-width="2"></circle><circle r="73.975" cx="689.93" cy="503.8" stroke="#53a7c2" stroke-opacity="1" stroke-width="2"></circle><circle r="53.955" cx="1177.03" cy="488.66" stroke="#53a7c2" stroke-opacity="1" stroke-width="2"></circle><circle r="85.885" cx="136.59" cy="414.6" stroke="#53a7c2" stroke-opacity="1" stroke-width="2"></circle><circle r="55.03" cx="1172.62" cy="382.62" stroke="#53a7c2" stroke-opacity="1" stroke-width="2"></circle><circle r="184.705" cx="580.5" cy="459.1" stroke="#53a7c2" stroke-opacity="1" stroke-width="2"></circle><circle r="171.215" cx="1326.59" cy="274.66" stroke="#53a7c2" stroke-opacity="1" stroke-width="2"></circle><circle r="96.6" cx="681.74" cy="277.72" stroke="#53a7c2" stroke-opacity="1" stroke-width="2"></circle><circle r="184.855" cx="997.11" cy="471.26" stroke="#53a7c2" stroke-opacity="1" stroke-width="2"></circle><circle r="117.655" cx="186.23" cy="174.32" stroke="#53a7c2" stroke-opacity="1" stroke-width="2"></circle><circle r="155.485" cx="789.07" cy="145.6" stroke="#53a7c2" stroke-opacity="1" stroke-width="2"></circle><circle r="150.195" cx="911.51" cy="84.03" stroke="#53a7c2" stroke-opacity="1" stroke-width="2"></circle><circle r="179.75" cx="920.22" cy="548.69" stroke="#53a7c2" stroke-opacity="1" stroke-width="2"></circle><circle r="177.54" cx="101.04" cy="4.74" stroke="#53a7c2" stroke-opacity="1" stroke-width="2"></circle><circle r="164.855" cx="945.62" cy="288.9" stroke="#53a7c2" stroke-opacity="1" stroke-width="2"></circle><circle r="138.26" cx="209.42" cy="333.89" stroke="#53a7c2" stroke-opacity="1" stroke-width="2"></circle><circle r="125.915" cx="828.83" cy="385.65" stroke="#53a7c2" stroke-opacity="1" stroke-width="2"></circle><circle r="52.335" cx="121.96" cy="207.83" stroke="#53a7c2" stroke-opacity="1" stroke-width="2"></circle><circle r="177.475" cx="560.41" cy="214.49" stroke="#53a7c2" stroke-opacity="1" stroke-width="2"></circle><circle r="97.215" cx="1252.78" cy="327.04" stroke="#53a7c2" stroke-opacity="1" stroke-width="2"></circle><circle r="91.935" cx="413.04" cy="154.45" stroke="#53a7c2" stroke-opacity="1" stroke-width="2"></circle><circle r="86.36" cx="763.48" cy="41.21" stroke="#53a7c2" stroke-opacity="1" stroke-width="2"></circle><circle r="152.79" cx="1235.03" cy="145.41" stroke="#53a7c2" stroke-opacity="1" stroke-width="2"></circle></g><defs><clipPath id="SvgjsClipPath1002"><rect width="1440" height="560" x="0" y="0"></rect></clipPath></defs></svg>