<svg width="176" height="21" viewBox="0 0 176 21" fill="none" xmlns="http://www.w3.org/2000/svg">
<path d="M0.699219 5.19922C0.699219 4.50911 0.848958 3.89714 1.14844 3.36328C1.46094 2.82943 1.87109 2.38021 2.37891 2.01562C2.88672 1.65104 3.46615 1.3776 4.11719 1.19531C4.76823 1.01302 5.43229 0.921875 6.10938 0.921875C6.79948 0.921875 7.47656 1.01953 8.14062 1.21484C8.80469 1.41016 9.39062 1.70964 9.89844 2.11328C10.4193 2.51693 10.8359 3.02474 11.1484 3.63672C11.474 4.2487 11.6367 4.97135 11.6367 5.80469L9.27344 5.76562C9.27344 5.3099 9.17578 4.92578 8.98047 4.61328C8.78516 4.28776 8.53125 4.02083 8.21875 3.8125C7.90625 3.60417 7.55469 3.45443 7.16406 3.36328C6.77344 3.25911 6.38281 3.20703 5.99219 3.20703C5.64062 3.20703 5.30208 3.24609 4.97656 3.32422C4.65104 3.38932 4.35807 3.5 4.09766 3.65625C3.85026 3.79948 3.64844 3.98177 3.49219 4.20312C3.34896 4.41146 3.27734 4.65234 3.27734 4.92578C3.27734 5.45964 3.49219 5.86979 3.92188 6.15625C4.35156 6.42969 4.88542 6.66406 5.52344 6.85938C6.17448 7.05469 6.87109 7.25 7.61328 7.44531C8.36849 7.6276 9.0651 7.88802 9.70312 8.22656C10.3542 8.5651 10.8945 9.02083 11.3242 9.59375C11.7539 10.1536 11.9688 10.9154 11.9688 11.8789C11.9688 12.582 11.806 13.207 11.4805 13.7539C11.168 14.3008 10.7513 14.7695 10.2305 15.1602C9.70964 15.5378 9.11719 15.8242 8.45312 16.0195C7.78906 16.2148 7.10547 16.3125 6.40234 16.3125C5.69922 16.3125 5.01562 16.2083 4.35156 16C3.6875 15.7917 3.08854 15.4661 2.55469 15.0234C2.03385 14.5807 1.61068 14.0208 1.28516 13.3438C0.972656 12.6536 0.816406 11.8398 0.816406 10.9023H3.41406C3.41406 11.4622 3.50521 11.944 3.6875 12.3477C3.86979 12.7513 4.11068 13.0833 4.41016 13.3438C4.70964 13.5911 5.04167 13.7734 5.40625 13.8906C5.78385 14.0078 6.16797 14.0664 6.55859 14.0664C6.92318 14.0664 7.27474 14.0208 7.61328 13.9297C7.96484 13.8255 8.27734 13.6823 8.55078 13.5C8.82422 13.3047 9.03906 13.0703 9.19531 12.7969C9.36458 12.5234 9.44922 12.2174 9.44922 11.8789C9.44922 11.4753 9.32552 11.1497 9.07812 10.9023C8.83073 10.6419 8.4987 10.4206 8.08203 10.2383C7.67839 10.056 7.20964 9.89974 6.67578 9.76953C6.15495 9.63932 5.62109 9.5026 5.07422 9.35938C4.52734 9.20312 3.99349 9.02734 3.47266 8.83203C2.95182 8.6237 2.48307 8.36328 2.06641 8.05078C1.66276 7.73828 1.33073 7.35417 1.07031 6.89844C0.822917 6.42969 0.699219 5.86328 0.699219 5.19922ZM18.6719 5.51172C19.6875 5.51172 20.5013 5.98047 21.1133 6.91797V5.70703H23.3594V16H21.1133V14.7695C20.8138 15.2253 20.4557 15.5768 20.0391 15.8242C19.6224 16.0716 19.1667 16.1953 18.6719 16.1953C18.0469 16.1953 17.474 16.0651 16.9531 15.8047C16.4453 15.5443 16.0091 15.1797 15.6445 14.7109C15.2799 14.2422 14.9935 13.6823 14.7852 13.0312C14.5898 12.3672 14.4922 11.638 14.4922 10.8438C14.4922 10.0365 14.5898 9.30729 14.7852 8.65625C14.9935 8.00521 15.2799 7.44531 15.6445 6.97656C16.0091 6.50781 16.4453 6.14974 16.9531 5.90234C17.474 5.64193 18.0469 5.51172 18.6719 5.51172ZM19.4141 14.3398C19.6745 14.3398 19.9089 14.2552 20.1172 14.0859C20.3255 13.9167 20.5013 13.6823 20.6445 13.3828C20.7878 13.0703 20.8984 12.6992 20.9766 12.2695C21.0677 11.8398 21.1133 11.3646 21.1133 10.8438C21.1133 10.3229 21.0677 9.84766 20.9766 9.41797C20.8984 8.98828 20.7878 8.6237 20.6445 8.32422C20.5013 8.01172 20.3255 7.77083 20.1172 7.60156C19.9089 7.43229 19.6745 7.34766 19.4141 7.34766C19.0495 7.34766 18.7109 7.43229 18.3984 7.60156C18.099 7.77083 17.8385 8.01172 17.6172 8.32422C17.3958 8.6237 17.2266 8.98828 17.1094 9.41797C16.9922 9.84766 16.9336 10.3229 16.9336 10.8438C16.9336 11.3646 16.9922 11.8398 17.1094 12.2695C17.2266 12.6992 17.3958 13.0703 17.6172 13.3828C17.8385 13.6823 18.099 13.9167 18.3984 14.0859C18.7109 14.2552 19.0495 14.3398 19.4141 14.3398ZM27.2891 16V0.863281H29.5352V16H27.2891ZM32.2148 10.8438C32.2148 9.91927 32.3255 9.125 32.5469 8.46094C32.7682 7.79688 33.0742 7.24349 33.4648 6.80078C33.8685 6.35807 34.3503 6.03255 34.9102 5.82422C35.4831 5.61589 36.1146 5.51172 36.8047 5.51172C37.625 5.51172 38.3216 5.64844 38.8945 5.92188C39.4805 6.18229 39.9557 6.55339 40.3203 7.03516C40.6849 7.51693 40.9518 8.09635 41.1211 8.77344C41.2904 9.45052 41.375 10.2057 41.375 11.0391H39.1289L34.6562 11.0195C34.6823 12.1784 34.9167 13.0247 35.3594 13.5586C35.8021 14.0794 36.375 14.3398 37.0781 14.3398C37.6641 14.3398 38.1263 14.1641 38.4648 13.8125C38.8164 13.4479 38.9922 12.9661 38.9922 12.3672H41.2383C41.2383 12.9401 41.1341 13.4674 40.9258 13.9492C40.7305 14.418 40.4505 14.8216 40.0859 15.1602C39.7344 15.4857 39.2982 15.7396 38.7773 15.9219C38.2695 16.1042 37.7031 16.1953 37.0781 16.1953C36.349 16.1953 35.6849 16.0911 35.0859 15.8828C34.487 15.6745 33.9727 15.349 33.543 14.9062C33.1263 14.4635 32.8008 13.9102 32.5664 13.2461C32.332 12.569 32.2148 11.7682 32.2148 10.8438ZM34.7734 9.45703L38.9922 9.47656C38.862 8.77344 38.6211 8.23307 38.2695 7.85547C37.918 7.46484 37.4297 7.26953 36.8047 7.26953C36.2969 7.26953 35.8672 7.44531 35.5156 7.79688C35.1641 8.14844 34.9167 8.70182 34.7734 9.45703ZM45.168 12.3281C45.168 12.7057 45.2266 13.0247 45.3438 13.2852C45.474 13.5456 45.6367 13.7604 45.832 13.9297C46.0273 14.099 46.2487 14.2227 46.4961 14.3008C46.7435 14.3659 46.9909 14.3984 47.2383 14.3984C47.668 14.3984 48.0521 14.3008 48.3906 14.1055C48.7422 13.9102 48.918 13.6628 48.918 13.3633C48.918 12.8945 48.7812 12.543 48.5078 12.3086C48.2474 12.0742 47.9154 11.8919 47.5117 11.7617C47.1211 11.6185 46.6914 11.5013 46.2227 11.4102C45.7539 11.306 45.3177 11.1497 44.9141 10.9414C44.5234 10.7331 44.1914 10.4466 43.918 10.082C43.6576 9.70443 43.5273 9.17708 43.5273 8.5C43.5273 8.03125 43.638 7.60807 43.8594 7.23047C44.0807 6.85286 44.3737 6.53385 44.7383 6.27344C45.1029 6 45.513 5.79818 45.9688 5.66797C46.4245 5.52474 46.8932 5.45312 47.375 5.45312C47.8438 5.45312 48.2995 5.52474 48.7422 5.66797C49.1979 5.8112 49.5951 6.03255 49.9336 6.33203C50.2852 6.63151 50.5651 7.01562 50.7734 7.48438C50.9948 7.95312 51.1055 8.51302 51.1055 9.16406H49.0938C49.0938 8.78646 49.0417 8.47396 48.9375 8.22656C48.8464 7.96615 48.7161 7.75781 48.5469 7.60156C48.3776 7.43229 48.1888 7.3151 47.9805 7.25C47.7721 7.17188 47.5573 7.13281 47.3359 7.13281C47.1276 7.13281 46.9193 7.16536 46.7109 7.23047C46.5156 7.28255 46.3398 7.36068 46.1836 7.46484C46.0273 7.56901 45.8971 7.69271 45.793 7.83594C45.7018 7.97917 45.6562 8.13542 45.6562 8.30469C45.6562 8.65625 45.793 8.92318 46.0664 9.10547C46.3398 9.27474 46.6784 9.41797 47.082 9.53516C47.4857 9.63932 47.9284 9.75 48.4102 9.86719C48.8919 9.98438 49.3346 10.1667 49.7383 10.4141C50.1419 10.6484 50.4805 10.9805 50.7539 11.4102C51.0273 11.8398 51.1641 12.4258 51.1641 13.168C51.1641 13.6497 51.0469 14.0794 50.8125 14.457C50.5911 14.8216 50.2917 15.1341 49.9141 15.3945C49.5365 15.6549 49.1068 15.8568 48.625 16C48.1432 16.1302 47.6484 16.1953 47.1406 16.1953C46.6198 16.1953 46.112 16.1237 45.6172 15.9805C45.1224 15.8242 44.6797 15.5898 44.2891 15.2773C43.8984 14.9648 43.5794 14.5677 43.332 14.0859C43.0977 13.5911 42.9805 13.0052 42.9805 12.3281H45.168ZM54.5469 1.21484H58.7656C62.763 1.21484 64.7617 2.66016 64.7617 5.55078C64.7617 8.25911 62.763 9.61328 58.7656 9.61328H57.0469V16H54.5469V1.21484ZM57.0469 3.14844V7.66016H58.8633C61.1289 7.66016 62.2617 6.95703 62.2617 5.55078C62.2617 3.94922 61.0638 3.14844 58.668 3.14844H57.0469ZM66.9922 16V5.70703H69.2383V7.23047C69.5117 6.68359 69.8633 6.26042 70.293 5.96094C70.7357 5.66146 71.2891 5.51172 71.9531 5.51172C72.0182 5.51172 72.0573 5.50521 72.0703 5.49219H72.1289V7.93359H71.7383C70.8398 7.93359 70.1953 8.24609 69.8047 8.87109C69.4271 9.48307 69.2383 10.3164 69.2383 11.3711V16H66.9922ZM78.6172 5.43359C79.4115 5.43359 80.0951 5.5638 80.668 5.82422C81.2539 6.08464 81.7357 6.45573 82.1133 6.9375C82.4909 7.40625 82.7708 7.97266 82.9531 8.63672C83.1354 9.30078 83.2266 10.0365 83.2266 10.8438C83.2266 11.7682 83.1159 12.569 82.8945 13.2461C82.6732 13.9232 82.3607 14.4831 81.957 14.9258C81.5534 15.3685 81.0651 15.7005 80.4922 15.9219C79.9323 16.1302 79.3073 16.2344 78.6172 16.2344C77.8229 16.2344 77.1328 16.1042 76.5469 15.8438C75.9609 15.5833 75.4792 15.2188 75.1016 14.75C74.724 14.2812 74.444 13.7148 74.2617 13.0508C74.0794 12.3867 73.9883 11.651 73.9883 10.8438C73.9883 9.90625 74.099 9.09896 74.3203 8.42188C74.5417 7.74479 74.8542 7.1849 75.2578 6.74219C75.6615 6.29948 76.1497 5.97396 76.7227 5.76562C77.2956 5.54427 77.9271 5.43359 78.6172 5.43359ZM76.4297 10.8438C76.4297 11.9896 76.6055 12.901 76.957 13.5781C77.3086 14.2422 77.862 14.5742 78.6172 14.5742C79.2682 14.5742 79.7891 14.2747 80.1797 13.6758C80.5833 13.0768 80.7852 12.1328 80.7852 10.8438C80.7852 10.2839 80.7396 9.77604 80.6484 9.32031C80.5703 8.85156 80.4401 8.45443 80.2578 8.12891C80.0885 7.80339 79.8672 7.54948 79.5938 7.36719C79.3203 7.1849 78.9948 7.09375 78.6172 7.09375C77.9661 7.09375 77.4388 7.39974 77.0352 8.01172C76.6315 8.61068 76.4297 9.55469 76.4297 10.8438ZM95.5586 1.21484H98.2734L103.508 16H100.852L99.6211 12.4648H94.1328L92.9023 16H90.2461L95.5586 1.21484ZM98.9375 10.5312L96.8867 4.65234L94.8164 10.5312H98.9375ZM105.582 5.70703H107.828V6.85938C108.089 6.41667 108.401 6.07812 108.766 5.84375C109.143 5.59635 109.56 5.47266 110.016 5.47266C110.966 5.47266 111.728 5.82422 112.301 6.52734C112.887 7.23047 113.18 8.29167 113.18 9.71094V16H110.934V9.71094C110.934 8.96875 110.81 8.41536 110.562 8.05078C110.315 7.67318 109.99 7.48438 109.586 7.48438C109.039 7.48438 108.609 7.72526 108.297 8.20703C107.984 8.6888 107.828 9.33984 107.828 10.1602V16H105.582V5.70703ZM120.215 5.51172C121.23 5.51172 122.044 5.98047 122.656 6.91797V5.70703H124.902V16H122.656V14.7695C122.357 15.2253 121.999 15.5768 121.582 15.8242C121.165 16.0716 120.71 16.1953 120.215 16.1953C119.59 16.1953 119.017 16.0651 118.496 15.8047C117.988 15.5443 117.552 15.1797 117.188 14.7109C116.823 14.2422 116.536 13.6823 116.328 13.0312C116.133 12.3672 116.035 11.638 116.035 10.8438C116.035 10.0365 116.133 9.30729 116.328 8.65625C116.536 8.00521 116.823 7.44531 117.188 6.97656C117.552 6.50781 117.988 6.14974 118.496 5.90234C119.017 5.64193 119.59 5.51172 120.215 5.51172ZM120.957 14.3398C121.217 14.3398 121.452 14.2552 121.66 14.0859C121.868 13.9167 122.044 13.6823 122.188 13.3828C122.331 13.0703 122.441 12.6992 122.52 12.2695C122.611 11.8398 122.656 11.3646 122.656 10.8438C122.656 10.3229 122.611 9.84766 122.52 9.41797C122.441 8.98828 122.331 8.6237 122.188 8.32422C122.044 8.01172 121.868 7.77083 121.66 7.60156C121.452 7.43229 121.217 7.34766 120.957 7.34766C120.592 7.34766 120.254 7.43229 119.941 7.60156C119.642 7.77083 119.382 8.01172 119.16 8.32422C118.939 8.6237 118.77 8.98828 118.652 9.41797C118.535 9.84766 118.477 10.3229 118.477 10.8438C118.477 11.3646 118.535 11.8398 118.652 12.2695C118.77 12.6992 118.939 13.0703 119.16 13.3828C119.382 13.6823 119.642 13.9167 119.941 14.0859C120.254 14.2552 120.592 14.3398 120.957 14.3398ZM128.832 16V0.863281H131.078V16H128.832ZM135.789 5.70703L137.469 12.9531L139.363 5.70703H141.902L138.191 17.7188C138.061 18.1875 137.911 18.5716 137.742 18.8711C137.573 19.1836 137.358 19.431 137.098 19.6133C136.85 19.7956 136.544 19.9193 136.18 19.9844C135.828 20.0625 135.405 20.1016 134.91 20.1016H133.934V18.1484H134.91C135.353 18.1484 135.678 18.0573 135.887 17.875C136.108 17.6927 136.29 17.3542 136.434 16.8594L136.551 16.4492L133.25 5.70703H135.789ZM142.902 7.46484V5.70703H144.23V3.03125H146.477V5.70703H148.352V7.46484H146.477V13.168C146.477 13.5456 146.516 13.806 146.594 13.9492C146.672 14.0924 146.9 14.1641 147.277 14.1641H148.352V16H146.281C145.786 16 145.402 15.9544 145.129 15.8633C144.855 15.7591 144.647 15.5964 144.504 15.375C144.374 15.1536 144.296 14.8607 144.27 14.4961C144.243 14.1315 144.23 13.6888 144.23 13.168V7.46484H142.902ZM151.695 5.70703H153.941V16H151.695V5.70703ZM151.598 1.70312H154.039V4.14453H151.598V1.70312ZM161.562 5.41406C162.096 5.41406 162.611 5.50521 163.105 5.6875C163.613 5.86979 164.056 6.13672 164.434 6.48828C164.824 6.82682 165.137 7.25651 165.371 7.77734C165.605 8.28516 165.723 8.87109 165.723 9.53516L163.535 9.51562C163.535 9.16406 163.477 8.84505 163.359 8.55859C163.255 8.27214 163.112 8.03125 162.93 7.83594C162.747 7.64062 162.539 7.49089 162.305 7.38672C162.07 7.26953 161.829 7.21094 161.582 7.21094C161.309 7.21094 161.042 7.28255 160.781 7.42578C160.521 7.55599 160.286 7.77083 160.078 8.07031C159.87 8.35677 159.701 8.72786 159.57 9.18359C159.44 9.63932 159.375 10.1927 159.375 10.8438C159.375 11.4818 159.434 12.0286 159.551 12.4844C159.681 12.9271 159.844 13.2917 160.039 13.5781C160.247 13.8646 160.475 14.0729 160.723 14.2031C160.983 14.3203 161.243 14.3789 161.504 14.3789C161.751 14.3789 161.992 14.3268 162.227 14.2227C162.474 14.1185 162.689 13.9753 162.871 13.793C163.053 13.5977 163.203 13.3763 163.32 13.1289C163.438 12.8685 163.496 12.5885 163.496 12.2891L165.742 12.2695C165.742 12.8945 165.618 13.4544 165.371 13.9492C165.124 14.431 164.798 14.8477 164.395 15.1992C163.991 15.5378 163.529 15.7982 163.008 15.9805C162.5 16.1628 161.973 16.2539 161.426 16.2539C160.866 16.2539 160.319 16.1497 159.785 15.9414C159.251 15.7331 158.77 15.4141 158.34 14.9844C157.923 14.5417 157.585 13.9818 157.324 13.3047C157.064 12.6146 156.934 11.7943 156.934 10.8438C156.934 9.90625 157.064 9.09896 157.324 8.42188C157.598 7.74479 157.956 7.1849 158.398 6.74219C158.841 6.28646 159.336 5.95443 159.883 5.74609C160.443 5.52474 161.003 5.41406 161.562 5.41406ZM169.73 12.3281C169.73 12.7057 169.789 13.0247 169.906 13.2852C170.036 13.5456 170.199 13.7604 170.395 13.9297C170.59 14.099 170.811 14.2227 171.059 14.3008C171.306 14.3659 171.553 14.3984 171.801 14.3984C172.23 14.3984 172.615 14.3008 172.953 14.1055C173.305 13.9102 173.48 13.6628 173.48 13.3633C173.48 12.8945 173.344 12.543 173.07 12.3086C172.81 12.0742 172.478 11.8919 172.074 11.7617C171.684 11.6185 171.254 11.5013 170.785 11.4102C170.316 11.306 169.88 11.1497 169.477 10.9414C169.086 10.7331 168.754 10.4466 168.48 10.082C168.22 9.70443 168.09 9.17708 168.09 8.5C168.09 8.03125 168.201 7.60807 168.422 7.23047C168.643 6.85286 168.936 6.53385 169.301 6.27344C169.665 6 170.076 5.79818 170.531 5.66797C170.987 5.52474 171.456 5.45312 171.938 5.45312C172.406 5.45312 172.862 5.52474 173.305 5.66797C173.76 5.8112 174.158 6.03255 174.496 6.33203C174.848 6.63151 175.128 7.01562 175.336 7.48438C175.557 7.95312 175.668 8.51302 175.668 9.16406H173.656C173.656 8.78646 173.604 8.47396 173.5 8.22656C173.409 7.96615 173.279 7.75781 173.109 7.60156C172.94 7.43229 172.751 7.3151 172.543 7.25C172.335 7.17188 172.12 7.13281 171.898 7.13281C171.69 7.13281 171.482 7.16536 171.273 7.23047C171.078 7.28255 170.902 7.36068 170.746 7.46484C170.59 7.56901 170.46 7.69271 170.355 7.83594C170.264 7.97917 170.219 8.13542 170.219 8.30469C170.219 8.65625 170.355 8.92318 170.629 9.10547C170.902 9.27474 171.241 9.41797 171.645 9.53516C172.048 9.63932 172.491 9.75 172.973 9.86719C173.454 9.98438 173.897 10.1667 174.301 10.4141C174.704 10.6484 175.043 10.9805 175.316 11.4102C175.59 11.8398 175.727 12.4258 175.727 13.168C175.727 13.6497 175.609 14.0794 175.375 14.457C175.154 14.8216 174.854 15.1341 174.477 15.3945C174.099 15.6549 173.669 15.8568 173.188 16C172.706 16.1302 172.211 16.1953 171.703 16.1953C171.182 16.1953 170.674 16.1237 170.18 15.9805C169.685 15.8242 169.242 15.5898 168.852 15.2773C168.461 14.9648 168.142 14.5677 167.895 14.0859C167.66 13.5911 167.543 13.0052 167.543 12.3281H169.73Z" fill="#04738C"/>
</svg>
