<svg width="245" height="48" viewBox="0 0 245 48" fill="none" xmlns="http://www.w3.org/2000/svg">
<path d="M0 0H244.382V48H0V0Z" fill="#04738C"/>
<path d="M15.628 20.0391C15.628 19.2109 15.8077 18.4766 16.1671 17.8359C16.5421 17.1953 17.0342 16.6562 17.6436 16.2188C18.253 15.7812 18.9483 15.4531 19.7296 15.2344C20.5108 15.0156 21.3077 14.9062 22.1202 14.9062C22.9483 14.9062 23.7608 15.0234 24.5577 15.2578C25.3546 15.4922 26.0577 15.8516 26.6671 16.3359C27.2921 16.8203 27.7921 17.4297 28.1671 18.1641C28.5577 18.8984 28.753 19.7656 28.753 20.7656L25.9171 20.7188C25.9171 20.1719 25.7999 19.7109 25.5655 19.3359C25.3311 18.9453 25.0264 18.625 24.6514 18.375C24.2764 18.125 23.8546 17.9453 23.3858 17.8359C22.9171 17.7109 22.4483 17.6484 21.9796 17.6484C21.5577 17.6484 21.1514 17.6953 20.7608 17.7891C20.3702 17.8672 20.0186 18 19.7061 18.1875C19.4092 18.3594 19.1671 18.5781 18.9796 18.8438C18.8077 19.0938 18.7217 19.3828 18.7217 19.7109C18.7217 20.3516 18.9796 20.8438 19.4952 21.1875C20.0108 21.5156 20.6514 21.7969 21.4171 22.0312C22.1983 22.2656 23.0342 22.5 23.9249 22.7344C24.8311 22.9531 25.6671 23.2656 26.4327 23.6719C27.2139 24.0781 27.8624 24.625 28.378 25.3125C28.8936 25.9844 29.1514 26.8984 29.1514 28.0547C29.1514 28.8984 28.9561 29.6484 28.5655 30.3047C28.1905 30.9609 27.6905 31.5234 27.0655 31.9922C26.4405 32.4453 25.7296 32.7891 24.9327 33.0234C24.1358 33.2578 23.3155 33.375 22.4717 33.375C21.628 33.375 20.8077 33.25 20.0108 33C19.2139 32.75 18.4952 32.3594 17.8546 31.8281C17.2296 31.2969 16.7217 30.625 16.3311 29.8125C15.9561 28.9844 15.7686 28.0078 15.7686 26.8828H18.8858C18.8858 27.5547 18.9952 28.1328 19.2139 28.6172C19.4327 29.1016 19.7217 29.5 20.0811 29.8125C20.4405 30.1094 20.8389 30.3281 21.2764 30.4688C21.7296 30.6094 22.1905 30.6797 22.6592 30.6797C23.0967 30.6797 23.5186 30.625 23.9249 30.5156C24.3467 30.3906 24.7217 30.2188 25.0499 30C25.378 29.7656 25.6358 29.4844 25.8233 29.1562C26.0264 28.8281 26.128 28.4609 26.128 28.0547C26.128 27.5703 25.9796 27.1797 25.6827 26.8828C25.3858 26.5703 24.9874 26.3047 24.4874 26.0859C24.003 25.8672 23.4405 25.6797 22.7999 25.5234C22.1749 25.3672 21.5342 25.2031 20.878 25.0312C20.2217 24.8438 19.5811 24.6328 18.9561 24.3984C18.3311 24.1484 17.7686 23.8359 17.2686 23.4609C16.7842 23.0859 16.3858 22.625 16.0733 22.0781C15.7764 21.5156 15.628 20.8359 15.628 20.0391ZM37.4352 20.4141C38.6539 20.4141 39.6305 20.9766 40.3649 22.1016V20.6484H43.0602V33H40.3649V31.5234C40.0055 32.0703 39.5758 32.4922 39.0758 32.7891C38.5758 33.0859 38.0289 33.2344 37.4352 33.2344C36.6852 33.2344 35.9977 33.0781 35.3727 32.7656C34.7633 32.4531 34.2399 32.0156 33.8024 31.4531C33.3649 30.8906 33.0211 30.2188 32.7711 29.4375C32.5367 28.6406 32.4196 27.7656 32.4196 26.8125C32.4196 25.8438 32.5367 24.9688 32.7711 24.1875C33.0211 23.4062 33.3649 22.7344 33.8024 22.1719C34.2399 21.6094 34.7633 21.1797 35.3727 20.8828C35.9977 20.5703 36.6852 20.4141 37.4352 20.4141ZM38.3258 31.0078C38.6383 31.0078 38.9196 30.9062 39.1696 30.7031C39.4196 30.5 39.6305 30.2188 39.8024 29.8594C39.9742 29.4844 40.1071 29.0391 40.2008 28.5234C40.3102 28.0078 40.3649 27.4375 40.3649 26.8125C40.3649 26.1875 40.3102 25.6172 40.2008 25.1016C40.1071 24.5859 39.9742 24.1484 39.8024 23.7891C39.6305 23.4141 39.4196 23.125 39.1696 22.9219C38.9196 22.7188 38.6383 22.6172 38.3258 22.6172C37.8883 22.6172 37.4821 22.7188 37.1071 22.9219C36.7477 23.125 36.4352 23.4141 36.1696 23.7891C35.9039 24.1484 35.7008 24.5859 35.5602 25.1016C35.4196 25.6172 35.3492 26.1875 35.3492 26.8125C35.3492 27.4375 35.4196 28.0078 35.5602 28.5234C35.7008 29.0391 35.9039 29.4844 36.1696 29.8594C36.4352 30.2188 36.7477 30.5 37.1071 30.7031C37.4821 30.9062 37.8883 31.0078 38.3258 31.0078ZM48.0158 33V14.8359H50.7111V33H48.0158ZM54.1667 26.8125C54.1667 25.7031 54.2996 24.75 54.5652 23.9531C54.8308 23.1562 55.198 22.4922 55.6667 21.9609C56.1511 21.4297 56.7292 21.0391 57.4011 20.7891C58.0886 20.5391 58.8464 20.4141 59.6746 20.4141C60.6589 20.4141 61.4949 20.5781 62.1824 20.9062C62.8855 21.2188 63.4558 21.6641 63.8933 22.2422C64.3308 22.8203 64.6511 23.5156 64.8542 24.3281C65.0574 25.1406 65.1589 26.0469 65.1589 27.0469H62.4636L57.0964 27.0234C57.1277 28.4141 57.4089 29.4297 57.9402 30.0703C58.4714 30.6953 59.1589 31.0078 60.0027 31.0078C60.7058 31.0078 61.2605 30.7969 61.6667 30.375C62.0886 29.9375 62.2996 29.3594 62.2996 28.6406H64.9949C64.9949 29.3281 64.8699 29.9609 64.6199 30.5391C64.3855 31.1016 64.0496 31.5859 63.6121 31.9922C63.1902 32.3828 62.6667 32.6875 62.0417 32.9062C61.4324 33.125 60.7527 33.2344 60.0027 33.2344C59.1277 33.2344 58.3308 33.1094 57.6121 32.8594C56.8933 32.6094 56.2761 32.2188 55.7605 31.6875C55.2605 31.1562 54.8699 30.4922 54.5886 29.6953C54.3074 28.8828 54.1667 27.9219 54.1667 26.8125ZM57.2371 25.1484L62.2996 25.1719C62.1433 24.3281 61.8542 23.6797 61.4324 23.2266C61.0105 22.7578 60.4246 22.5234 59.6746 22.5234C59.0652 22.5234 58.5496 22.7344 58.1277 23.1562C57.7058 23.5781 57.4089 24.2422 57.2371 25.1484ZM69.9505 28.5938C69.9505 29.0469 70.0208 29.4297 70.1614 29.7422C70.3177 30.0547 70.513 30.3125 70.7474 30.5156C70.9817 30.7188 71.2474 30.8672 71.5442 30.9609C71.8411 31.0391 72.138 31.0781 72.4349 31.0781C72.9505 31.0781 73.4114 30.9609 73.8177 30.7266C74.2396 30.4922 74.4505 30.1953 74.4505 29.8359C74.4505 29.2734 74.2864 28.8516 73.9583 28.5703C73.6458 28.2891 73.2474 28.0703 72.763 27.9141C72.2942 27.7422 71.7786 27.6016 71.2161 27.4922C70.6536 27.3672 70.1302 27.1797 69.6458 26.9297C69.1771 26.6797 68.7786 26.3359 68.4505 25.8984C68.138 25.4453 67.9817 24.8125 67.9817 24C67.9817 23.4375 68.1146 22.9297 68.3802 22.4766C68.6458 22.0234 68.9974 21.6406 69.4349 21.3281C69.8724 21 70.3646 20.7578 70.9114 20.6016C71.4583 20.4297 72.0208 20.3438 72.5989 20.3438C73.1614 20.3438 73.7083 20.4297 74.2396 20.6016C74.7864 20.7734 75.263 21.0391 75.6692 21.3984C76.0911 21.7578 76.4271 22.2188 76.6771 22.7812C76.9427 23.3438 77.0755 24.0156 77.0755 24.7969H74.6614C74.6614 24.3438 74.5989 23.9688 74.4739 23.6719C74.3646 23.3594 74.2083 23.1094 74.0052 22.9219C73.8021 22.7188 73.5755 22.5781 73.3255 22.5C73.0755 22.4062 72.8177 22.3594 72.5521 22.3594C72.3021 22.3594 72.0521 22.3984 71.8021 22.4766C71.5677 22.5391 71.3567 22.6328 71.1692 22.7578C70.9817 22.8828 70.8255 23.0312 70.7005 23.2031C70.5911 23.375 70.5364 23.5625 70.5364 23.7656C70.5364 24.1875 70.7005 24.5078 71.0286 24.7266C71.3567 24.9297 71.763 25.1016 72.2474 25.2422C72.7317 25.3672 73.263 25.5 73.8411 25.6406C74.4192 25.7812 74.9505 26 75.4349 26.2969C75.9192 26.5781 76.3255 26.9766 76.6536 27.4922C76.9817 28.0078 77.1458 28.7109 77.1458 29.6016C77.1458 30.1797 77.0052 30.6953 76.7239 31.1484C76.4583 31.5859 76.0989 31.9609 75.6458 32.2734C75.1927 32.5859 74.6771 32.8281 74.0989 33C73.5208 33.1562 72.9271 33.2344 72.3177 33.2344C71.6927 33.2344 71.0833 33.1484 70.4896 32.9766C69.8958 32.7891 69.3646 32.5078 68.8958 32.1328C68.4271 31.7578 68.0442 31.2812 67.7474 30.7031C67.4661 30.1094 67.3255 29.4062 67.3255 28.5938H69.9505ZM81.4452 15.2578H86.5077C91.3046 15.2578 93.703 16.9922 93.703 20.4609C93.703 23.7109 91.3046 25.3359 86.5077 25.3359H84.4452V33H81.4452V15.2578ZM84.4452 17.5781V22.9922H86.6249C89.3436 22.9922 90.703 22.1484 90.703 20.4609C90.703 18.5391 89.2655 17.5781 86.3905 17.5781H84.4452ZM96.6196 33V20.6484H99.3149V22.4766C99.643 21.8203 100.065 21.3125 100.58 20.9531C101.112 20.5938 101.776 20.4141 102.573 20.4141C102.651 20.4141 102.698 20.4062 102.713 20.3906H102.784V23.3203H102.315C101.237 23.3203 100.463 23.6953 99.9946 24.4453C99.5414 25.1797 99.3149 26.1797 99.3149 27.4453V33H96.6196ZM110.81 20.3203C111.763 20.3203 112.583 20.4766 113.27 20.7891C113.974 21.1016 114.552 21.5469 115.005 22.125C115.458 22.6875 115.794 23.3672 116.013 24.1641C116.231 24.9609 116.341 25.8438 116.341 26.8125C116.341 27.9219 116.208 28.8828 115.942 29.6953C115.677 30.5078 115.302 31.1797 114.817 31.7109C114.333 32.2422 113.747 32.6406 113.06 32.9062C112.388 33.1562 111.638 33.2812 110.81 33.2812C109.856 33.2812 109.028 33.125 108.325 32.8125C107.622 32.5 107.044 32.0625 106.591 31.5C106.138 30.9375 105.802 30.2578 105.583 29.4609C105.364 28.6641 105.255 27.7812 105.255 26.8125C105.255 25.6875 105.388 24.7188 105.653 23.9062C105.919 23.0938 106.294 22.4219 106.778 21.8906C107.263 21.3594 107.849 20.9688 108.536 20.7188C109.224 20.4531 109.981 20.3203 110.81 20.3203ZM108.185 26.8125C108.185 28.1875 108.395 29.2812 108.817 30.0938C109.239 30.8906 109.903 31.2891 110.81 31.2891C111.591 31.2891 112.216 30.9297 112.685 30.2109C113.169 29.4922 113.411 28.3594 113.411 26.8125C113.411 26.1406 113.356 25.5312 113.247 24.9844C113.153 24.4219 112.997 23.9453 112.778 23.5547C112.575 23.1641 112.31 22.8594 111.981 22.6406C111.653 22.4219 111.263 22.3125 110.81 22.3125C110.028 22.3125 109.395 22.6797 108.911 23.4141C108.427 24.1328 108.185 25.2656 108.185 26.8125ZM131.619 15.2578H134.877L141.158 33H137.971L136.494 28.7578H129.908L128.432 33H125.244L131.619 15.2578ZM135.674 26.4375L133.213 19.3828L130.729 26.4375H135.674ZM143.887 20.6484H146.583V22.0312C146.895 21.5 147.27 21.0938 147.708 20.8125C148.161 20.5156 148.661 20.3672 149.208 20.3672C150.348 20.3672 151.262 20.7891 151.95 21.6328C152.653 22.4766 153.005 23.75 153.005 25.4531V33H150.309V25.4531C150.309 24.5625 150.161 23.8984 149.864 23.4609C149.567 23.0078 149.176 22.7812 148.692 22.7812C148.036 22.7812 147.52 23.0703 147.145 23.6484C146.77 24.2266 146.583 25.0078 146.583 25.9922V33H143.887V20.6484ZM161.687 20.4141C162.905 20.4141 163.882 20.9766 164.616 22.1016V20.6484H167.312V33H164.616V31.5234C164.257 32.0703 163.827 32.4922 163.327 32.7891C162.827 33.0859 162.28 33.2344 161.687 33.2344C160.937 33.2344 160.249 33.0781 159.624 32.7656C159.015 32.4531 158.491 32.0156 158.054 31.4531C157.616 30.8906 157.273 30.2188 157.023 29.4375C156.788 28.6406 156.671 27.7656 156.671 26.8125C156.671 25.8438 156.788 24.9688 157.023 24.1875C157.273 23.4062 157.616 22.7344 158.054 22.1719C158.491 21.6094 159.015 21.1797 159.624 20.8828C160.249 20.5703 160.937 20.4141 161.687 20.4141ZM162.577 31.0078C162.89 31.0078 163.171 30.9062 163.421 30.7031C163.671 30.5 163.882 30.2188 164.054 29.8594C164.226 29.4844 164.359 29.0391 164.452 28.5234C164.562 28.0078 164.616 27.4375 164.616 26.8125C164.616 26.1875 164.562 25.6172 164.452 25.1016C164.359 24.5859 164.226 24.1484 164.054 23.7891C163.882 23.4141 163.671 23.125 163.421 22.9219C163.171 22.7188 162.89 22.6172 162.577 22.6172C162.14 22.6172 161.734 22.7188 161.359 22.9219C160.999 23.125 160.687 23.4141 160.421 23.7891C160.155 24.1484 159.952 24.5859 159.812 25.1016C159.671 25.6172 159.601 26.1875 159.601 26.8125C159.601 27.4375 159.671 28.0078 159.812 28.5234C159.952 29.0391 160.155 29.4844 160.421 29.8594C160.687 30.2188 160.999 30.5 161.359 30.7031C161.734 30.9062 162.14 31.0078 162.577 31.0078ZM172.267 33V14.8359H174.963V33H172.267ZM180.856 20.6484L182.871 29.3438L185.145 20.6484H188.192L183.739 35.0625C183.582 35.625 183.403 36.0859 183.2 36.4453C182.996 36.8203 182.739 37.1172 182.426 37.3359C182.129 37.5547 181.762 37.7031 181.325 37.7812C180.903 37.875 180.395 37.9219 179.801 37.9219H178.629V35.5781H179.801C180.332 35.5781 180.723 35.4688 180.973 35.25C181.239 35.0312 181.457 34.625 181.629 34.0312L181.77 33.5391L177.809 20.6484H180.856ZM189.632 22.7578V20.6484H191.225V17.4375H193.921V20.6484H196.171V22.7578H193.921V29.6016C193.921 30.0547 193.968 30.3672 194.061 30.5391C194.155 30.7109 194.429 30.7969 194.882 30.7969H196.171V33H193.686C193.093 33 192.632 32.9453 192.304 32.8359C191.975 32.7109 191.725 32.5156 191.554 32.25C191.397 31.9844 191.304 31.6328 191.272 31.1953C191.241 30.7578 191.225 30.2266 191.225 29.6016V22.7578H189.632ZM200.423 20.6484H203.119V33H200.423V20.6484ZM200.306 15.8438H203.236V18.7734H200.306V15.8438ZM212.504 20.2969C213.145 20.2969 213.762 20.4062 214.355 20.625C214.965 20.8438 215.496 21.1641 215.949 21.5859C216.418 21.9922 216.793 22.5078 217.074 23.1328C217.355 23.7422 217.496 24.4453 217.496 25.2422L214.871 25.2188C214.871 24.7969 214.801 24.4141 214.66 24.0703C214.535 23.7266 214.363 23.4375 214.145 23.2031C213.926 22.9688 213.676 22.7891 213.395 22.6641C213.113 22.5234 212.824 22.4531 212.527 22.4531C212.199 22.4531 211.879 22.5391 211.566 22.7109C211.254 22.8672 210.973 23.125 210.723 23.4844C210.473 23.8281 210.27 24.2734 210.113 24.8203C209.957 25.3672 209.879 26.0312 209.879 26.8125C209.879 27.5781 209.949 28.2344 210.09 28.7812C210.246 29.3125 210.441 29.75 210.676 30.0938C210.926 30.4375 211.199 30.6875 211.496 30.8438C211.809 30.9844 212.121 31.0547 212.434 31.0547C212.73 31.0547 213.02 30.9922 213.301 30.8672C213.598 30.7422 213.855 30.5703 214.074 30.3516C214.293 30.1172 214.473 29.8516 214.613 29.5547C214.754 29.2422 214.824 28.9062 214.824 28.5469L217.52 28.5234C217.52 29.2734 217.371 29.9453 217.074 30.5391C216.777 31.1172 216.387 31.6172 215.902 32.0391C215.418 32.4453 214.863 32.7578 214.238 32.9766C213.629 33.1953 212.996 33.3047 212.34 33.3047C211.668 33.3047 211.012 33.1797 210.371 32.9297C209.73 32.6797 209.152 32.2969 208.637 31.7812C208.137 31.25 207.73 30.5781 207.418 29.7656C207.105 28.9375 206.949 27.9531 206.949 26.8125C206.949 25.6875 207.105 24.7188 207.418 23.9062C207.746 23.0938 208.176 22.4219 208.707 21.8906C209.238 21.3438 209.832 20.9453 210.488 20.6953C211.16 20.4297 211.832 20.2969 212.504 20.2969ZM222.545 28.5938C222.545 29.0469 222.616 29.4297 222.756 29.7422C222.913 30.0547 223.108 30.3125 223.342 30.5156C223.577 30.7188 223.842 30.8672 224.139 30.9609C224.436 31.0391 224.733 31.0781 225.03 31.0781C225.545 31.0781 226.006 30.9609 226.413 30.7266C226.835 30.4922 227.045 30.1953 227.045 29.8359C227.045 29.2734 226.881 28.8516 226.553 28.5703C226.241 28.2891 225.842 28.0703 225.358 27.9141C224.889 27.7422 224.374 27.6016 223.811 27.4922C223.249 27.3672 222.725 27.1797 222.241 26.9297C221.772 26.6797 221.374 26.3359 221.045 25.8984C220.733 25.4453 220.577 24.8125 220.577 24C220.577 23.4375 220.71 22.9297 220.975 22.4766C221.241 22.0234 221.592 21.6406 222.03 21.3281C222.467 21 222.96 20.7578 223.506 20.6016C224.053 20.4297 224.616 20.3438 225.194 20.3438C225.756 20.3438 226.303 20.4297 226.835 20.6016C227.381 20.7734 227.858 21.0391 228.264 21.3984C228.686 21.7578 229.022 22.2188 229.272 22.7812C229.538 23.3438 229.67 24.0156 229.67 24.7969H227.256C227.256 24.3438 227.194 23.9688 227.069 23.6719C226.96 23.3594 226.803 23.1094 226.6 22.9219C226.397 22.7188 226.17 22.5781 225.92 22.5C225.67 22.4062 225.413 22.3594 225.147 22.3594C224.897 22.3594 224.647 22.3984 224.397 22.4766C224.163 22.5391 223.952 22.6328 223.764 22.7578C223.577 22.8828 223.42 23.0312 223.295 23.2031C223.186 23.375 223.131 23.5625 223.131 23.7656C223.131 24.1875 223.295 24.5078 223.624 24.7266C223.952 24.9297 224.358 25.1016 224.842 25.2422C225.327 25.3672 225.858 25.5 226.436 25.6406C227.014 25.7812 227.545 26 228.03 26.2969C228.514 26.5781 228.92 26.9766 229.249 27.4922C229.577 28.0078 229.741 28.7109 229.741 29.6016C229.741 30.1797 229.6 30.6953 229.319 31.1484C229.053 31.5859 228.694 31.9609 228.241 32.2734C227.788 32.5859 227.272 32.8281 226.694 33C226.116 33.1562 225.522 33.2344 224.913 33.2344C224.288 33.2344 223.678 33.1484 223.085 32.9766C222.491 32.7891 221.96 32.5078 221.491 32.1328C221.022 31.7578 220.639 31.2812 220.342 30.7031C220.061 30.1094 219.92 29.4062 219.92 28.5938H222.545Z" fill="white"/>
</svg>
