<svg width="195" height="38" viewBox="0 0 195 38" fill="none" xmlns="http://www.w3.org/2000/svg">
<path d="M0 0H195V38H0V0Z" fill="#04738C"/>
<path d="M1.69922 15.1992C1.69922 14.5091 1.84896 13.8971 2.14844 13.3633C2.46094 12.8294 2.87109 12.3802 3.37891 12.0156C3.88672 11.651 4.46615 11.3776 5.11719 11.1953C5.76823 11.013 6.43229 10.9219 7.10938 10.9219C7.79948 10.9219 8.47656 11.0195 9.14062 11.2148C9.80469 11.4102 10.3906 11.7096 10.8984 12.1133C11.4193 12.5169 11.8359 13.0247 12.1484 13.6367C12.474 14.2487 12.6367 14.9714 12.6367 15.8047L10.2734 15.7656C10.2734 15.3099 10.1758 14.9258 9.98047 14.6133C9.78516 14.2878 9.53125 14.0208 9.21875 13.8125C8.90625 13.6042 8.55469 13.4544 8.16406 13.3633C7.77344 13.2591 7.38281 13.207 6.99219 13.207C6.64062 13.207 6.30208 13.2461 5.97656 13.3242C5.65104 13.3893 5.35807 13.5 5.09766 13.6562C4.85026 13.7995 4.64844 13.9818 4.49219 14.2031C4.34896 14.4115 4.27734 14.6523 4.27734 14.9258C4.27734 15.4596 4.49219 15.8698 4.92188 16.1562C5.35156 16.4297 5.88542 16.6641 6.52344 16.8594C7.17448 17.0547 7.87109 17.25 8.61328 17.4453C9.36849 17.6276 10.0651 17.888 10.7031 18.2266C11.3542 18.5651 11.8945 19.0208 12.3242 19.5938C12.7539 20.1536 12.9688 20.9154 12.9688 21.8789C12.9688 22.582 12.806 23.207 12.4805 23.7539C12.168 24.3008 11.7513 24.7695 11.2305 25.1602C10.7096 25.5378 10.1172 25.8242 9.45312 26.0195C8.78906 26.2148 8.10547 26.3125 7.40234 26.3125C6.69922 26.3125 6.01562 26.2083 5.35156 26C4.6875 25.7917 4.08854 25.4661 3.55469 25.0234C3.03385 24.5807 2.61068 24.0208 2.28516 23.3438C1.97266 22.6536 1.81641 21.8398 1.81641 20.9023H4.41406C4.41406 21.4622 4.50521 21.944 4.6875 22.3477C4.86979 22.7513 5.11068 23.0833 5.41016 23.3438C5.70964 23.5911 6.04167 23.7734 6.40625 23.8906C6.78385 24.0078 7.16797 24.0664 7.55859 24.0664C7.92318 24.0664 8.27474 24.0208 8.61328 23.9297C8.96484 23.8255 9.27734 23.6823 9.55078 23.5C9.82422 23.3047 10.0391 23.0703 10.1953 22.7969C10.3646 22.5234 10.4492 22.2174 10.4492 21.8789C10.4492 21.4753 10.3255 21.1497 10.0781 20.9023C9.83073 20.6419 9.4987 20.4206 9.08203 20.2383C8.67839 20.056 8.20964 19.8997 7.67578 19.7695C7.15495 19.6393 6.62109 19.5026 6.07422 19.3594C5.52734 19.2031 4.99349 19.0273 4.47266 18.832C3.95182 18.6237 3.48307 18.3633 3.06641 18.0508C2.66276 17.7383 2.33073 17.3542 2.07031 16.8984C1.82292 16.4297 1.69922 15.8633 1.69922 15.1992ZM19.6719 15.5117C20.6875 15.5117 21.5013 15.9805 22.1133 16.918V15.707H24.3594V26H22.1133V24.7695C21.8138 25.2253 21.4557 25.5768 21.0391 25.8242C20.6224 26.0716 20.1667 26.1953 19.6719 26.1953C19.0469 26.1953 18.474 26.0651 17.9531 25.8047C17.4453 25.5443 17.0091 25.1797 16.6445 24.7109C16.2799 24.2422 15.9935 23.6823 15.7852 23.0312C15.5898 22.3672 15.4922 21.638 15.4922 20.8438C15.4922 20.0365 15.5898 19.3073 15.7852 18.6562C15.9935 18.0052 16.2799 17.4453 16.6445 16.9766C17.0091 16.5078 17.4453 16.1497 17.9531 15.9023C18.474 15.6419 19.0469 15.5117 19.6719 15.5117ZM20.4141 24.3398C20.6745 24.3398 20.9089 24.2552 21.1172 24.0859C21.3255 23.9167 21.5013 23.6823 21.6445 23.3828C21.7878 23.0703 21.8984 22.6992 21.9766 22.2695C22.0677 21.8398 22.1133 21.3646 22.1133 20.8438C22.1133 20.3229 22.0677 19.8477 21.9766 19.418C21.8984 18.9883 21.7878 18.6237 21.6445 18.3242C21.5013 18.0117 21.3255 17.7708 21.1172 17.6016C20.9089 17.4323 20.6745 17.3477 20.4141 17.3477C20.0495 17.3477 19.7109 17.4323 19.3984 17.6016C19.099 17.7708 18.8385 18.0117 18.6172 18.3242C18.3958 18.6237 18.2266 18.9883 18.1094 19.418C17.9922 19.8477 17.9336 20.3229 17.9336 20.8438C17.9336 21.3646 17.9922 21.8398 18.1094 22.2695C18.2266 22.6992 18.3958 23.0703 18.6172 23.3828C18.8385 23.6823 19.099 23.9167 19.3984 24.0859C19.7109 24.2552 20.0495 24.3398 20.4141 24.3398ZM28.2891 26V10.8633H30.5352V26H28.2891ZM33.2148 20.8438C33.2148 19.9193 33.3255 19.125 33.5469 18.4609C33.7682 17.7969 34.0742 17.2435 34.4648 16.8008C34.8685 16.3581 35.3503 16.0326 35.9102 15.8242C36.4831 15.6159 37.1146 15.5117 37.8047 15.5117C38.625 15.5117 39.3216 15.6484 39.8945 15.9219C40.4805 16.1823 40.9557 16.5534 41.3203 17.0352C41.6849 17.5169 41.9518 18.0964 42.1211 18.7734C42.2904 19.4505 42.375 20.2057 42.375 21.0391H40.1289L35.6562 21.0195C35.6823 22.1784 35.9167 23.0247 36.3594 23.5586C36.8021 24.0794 37.375 24.3398 38.0781 24.3398C38.6641 24.3398 39.1263 24.1641 39.4648 23.8125C39.8164 23.4479 39.9922 22.9661 39.9922 22.3672H42.2383C42.2383 22.9401 42.1341 23.4674 41.9258 23.9492C41.7305 24.418 41.4505 24.8216 41.0859 25.1602C40.7344 25.4857 40.2982 25.7396 39.7773 25.9219C39.2695 26.1042 38.7031 26.1953 38.0781 26.1953C37.349 26.1953 36.6849 26.0911 36.0859 25.8828C35.487 25.6745 34.9727 25.349 34.543 24.9062C34.1263 24.4635 33.8008 23.9102 33.5664 23.2461C33.332 22.569 33.2148 21.7682 33.2148 20.8438ZM35.7734 19.457L39.9922 19.4766C39.862 18.7734 39.6211 18.2331 39.2695 17.8555C38.918 17.4648 38.4297 17.2695 37.8047 17.2695C37.2969 17.2695 36.8672 17.4453 36.5156 17.7969C36.1641 18.1484 35.9167 18.7018 35.7734 19.457ZM46.168 22.3281C46.168 22.7057 46.2266 23.0247 46.3438 23.2852C46.474 23.5456 46.6367 23.7604 46.832 23.9297C47.0273 24.099 47.2487 24.2227 47.4961 24.3008C47.7435 24.3659 47.9909 24.3984 48.2383 24.3984C48.668 24.3984 49.0521 24.3008 49.3906 24.1055C49.7422 23.9102 49.918 23.6628 49.918 23.3633C49.918 22.8945 49.7812 22.543 49.5078 22.3086C49.2474 22.0742 48.9154 21.8919 48.5117 21.7617C48.1211 21.6185 47.6914 21.5013 47.2227 21.4102C46.7539 21.306 46.3177 21.1497 45.9141 20.9414C45.5234 20.7331 45.1914 20.4466 44.918 20.082C44.6576 19.7044 44.5273 19.1771 44.5273 18.5C44.5273 18.0312 44.638 17.6081 44.8594 17.2305C45.0807 16.8529 45.3737 16.5339 45.7383 16.2734C46.1029 16 46.513 15.7982 46.9688 15.668C47.4245 15.5247 47.8932 15.4531 48.375 15.4531C48.8438 15.4531 49.2995 15.5247 49.7422 15.668C50.1979 15.8112 50.5951 16.0326 50.9336 16.332C51.2852 16.6315 51.5651 17.0156 51.7734 17.4844C51.9948 17.9531 52.1055 18.513 52.1055 19.1641H50.0938C50.0938 18.7865 50.0417 18.474 49.9375 18.2266C49.8464 17.9661 49.7161 17.7578 49.5469 17.6016C49.3776 17.4323 49.1888 17.3151 48.9805 17.25C48.7721 17.1719 48.5573 17.1328 48.3359 17.1328C48.1276 17.1328 47.9193 17.1654 47.7109 17.2305C47.5156 17.2826 47.3398 17.3607 47.1836 17.4648C47.0273 17.569 46.8971 17.6927 46.793 17.8359C46.7018 17.9792 46.6562 18.1354 46.6562 18.3047C46.6562 18.6562 46.793 18.9232 47.0664 19.1055C47.3398 19.2747 47.6784 19.418 48.082 19.5352C48.4857 19.6393 48.9284 19.75 49.4102 19.8672C49.8919 19.9844 50.3346 20.1667 50.7383 20.4141C51.1419 20.6484 51.4805 20.9805 51.7539 21.4102C52.0273 21.8398 52.1641 22.4258 52.1641 23.168C52.1641 23.6497 52.0469 24.0794 51.8125 24.457C51.5911 24.8216 51.2917 25.1341 50.9141 25.3945C50.5365 25.6549 50.1068 25.8568 49.625 26C49.1432 26.1302 48.6484 26.1953 48.1406 26.1953C47.6198 26.1953 47.112 26.1237 46.6172 25.9805C46.1224 25.8242 45.6797 25.5898 45.2891 25.2773C44.8984 24.9648 44.5794 24.5677 44.332 24.0859C44.0977 23.5911 43.9805 23.0052 43.9805 22.3281H46.168ZM55.5469 11.2148H59.7656C63.763 11.2148 65.7617 12.6602 65.7617 15.5508C65.7617 18.2591 63.763 19.6133 59.7656 19.6133H58.0469V26H55.5469V11.2148ZM58.0469 13.1484V17.6602H59.8633C62.1289 17.6602 63.2617 16.957 63.2617 15.5508C63.2617 13.9492 62.0638 13.1484 59.668 13.1484H58.0469ZM67.9922 26V15.707H70.2383V17.2305C70.5117 16.6836 70.8633 16.2604 71.293 15.9609C71.7357 15.6615 72.2891 15.5117 72.9531 15.5117C73.0182 15.5117 73.0573 15.5052 73.0703 15.4922H73.1289V17.9336H72.7383C71.8398 17.9336 71.1953 18.2461 70.8047 18.8711C70.4271 19.4831 70.2383 20.3164 70.2383 21.3711V26H67.9922ZM79.6172 15.4336C80.4115 15.4336 81.0951 15.5638 81.668 15.8242C82.2539 16.0846 82.7357 16.4557 83.1133 16.9375C83.4909 17.4062 83.7708 17.9727 83.9531 18.6367C84.1354 19.3008 84.2266 20.0365 84.2266 20.8438C84.2266 21.7682 84.1159 22.569 83.8945 23.2461C83.6732 23.9232 83.3607 24.4831 82.957 24.9258C82.5534 25.3685 82.0651 25.7005 81.4922 25.9219C80.9323 26.1302 80.3073 26.2344 79.6172 26.2344C78.8229 26.2344 78.1328 26.1042 77.5469 25.8438C76.9609 25.5833 76.4792 25.2188 76.1016 24.75C75.724 24.2812 75.444 23.7148 75.2617 23.0508C75.0794 22.3867 74.9883 21.651 74.9883 20.8438C74.9883 19.9062 75.099 19.099 75.3203 18.4219C75.5417 17.7448 75.8542 17.1849 76.2578 16.7422C76.6615 16.2995 77.1497 15.974 77.7227 15.7656C78.2956 15.5443 78.9271 15.4336 79.6172 15.4336ZM77.4297 20.8438C77.4297 21.9896 77.6055 22.901 77.957 23.5781C78.3086 24.2422 78.862 24.5742 79.6172 24.5742C80.2682 24.5742 80.7891 24.2747 81.1797 23.6758C81.5833 23.0768 81.7852 22.1328 81.7852 20.8438C81.7852 20.2839 81.7396 19.776 81.6484 19.3203C81.5703 18.8516 81.4401 18.4544 81.2578 18.1289C81.0885 17.8034 80.8672 17.5495 80.5938 17.3672C80.3203 17.1849 79.9948 17.0938 79.6172 17.0938C78.9661 17.0938 78.4388 17.3997 78.0352 18.0117C77.6315 18.6107 77.4297 19.5547 77.4297 20.8438ZM96.5586 11.2148H99.2734L104.508 26H101.852L100.621 22.4648H95.1328L93.9023 26H91.2461L96.5586 11.2148ZM99.9375 20.5312L97.8867 14.6523L95.8164 20.5312H99.9375ZM106.582 15.707H108.828V16.8594C109.089 16.4167 109.401 16.0781 109.766 15.8438C110.143 15.5964 110.56 15.4727 111.016 15.4727C111.966 15.4727 112.728 15.8242 113.301 16.5273C113.887 17.2305 114.18 18.2917 114.18 19.7109V26H111.934V19.7109C111.934 18.9688 111.81 18.4154 111.562 18.0508C111.315 17.6732 110.99 17.4844 110.586 17.4844C110.039 17.4844 109.609 17.7253 109.297 18.207C108.984 18.6888 108.828 19.3398 108.828 20.1602V26H106.582V15.707ZM121.215 15.5117C122.23 15.5117 123.044 15.9805 123.656 16.918V15.707H125.902V26H123.656V24.7695C123.357 25.2253 122.999 25.5768 122.582 25.8242C122.165 26.0716 121.71 26.1953 121.215 26.1953C120.59 26.1953 120.017 26.0651 119.496 25.8047C118.988 25.5443 118.552 25.1797 118.188 24.7109C117.823 24.2422 117.536 23.6823 117.328 23.0312C117.133 22.3672 117.035 21.638 117.035 20.8438C117.035 20.0365 117.133 19.3073 117.328 18.6562C117.536 18.0052 117.823 17.4453 118.188 16.9766C118.552 16.5078 118.988 16.1497 119.496 15.9023C120.017 15.6419 120.59 15.5117 121.215 15.5117ZM121.957 24.3398C122.217 24.3398 122.452 24.2552 122.66 24.0859C122.868 23.9167 123.044 23.6823 123.188 23.3828C123.331 23.0703 123.441 22.6992 123.52 22.2695C123.611 21.8398 123.656 21.3646 123.656 20.8438C123.656 20.3229 123.611 19.8477 123.52 19.418C123.441 18.9883 123.331 18.6237 123.188 18.3242C123.044 18.0117 122.868 17.7708 122.66 17.6016C122.452 17.4323 122.217 17.3477 121.957 17.3477C121.592 17.3477 121.254 17.4323 120.941 17.6016C120.642 17.7708 120.382 18.0117 120.16 18.3242C119.939 18.6237 119.77 18.9883 119.652 19.418C119.535 19.8477 119.477 20.3229 119.477 20.8438C119.477 21.3646 119.535 21.8398 119.652 22.2695C119.77 22.6992 119.939 23.0703 120.16 23.3828C120.382 23.6823 120.642 23.9167 120.941 24.0859C121.254 24.2552 121.592 24.3398 121.957 24.3398ZM129.832 26V10.8633H132.078V26H129.832ZM136.789 15.707L138.469 22.9531L140.363 15.707H142.902L139.191 27.7188C139.061 28.1875 138.911 28.5716 138.742 28.8711C138.573 29.1836 138.358 29.431 138.098 29.6133C137.85 29.7956 137.544 29.9193 137.18 29.9844C136.828 30.0625 136.405 30.1016 135.91 30.1016H134.934V28.1484H135.91C136.353 28.1484 136.678 28.0573 136.887 27.875C137.108 27.6927 137.29 27.3542 137.434 26.8594L137.551 26.4492L134.25 15.707H136.789ZM143.902 17.4648V15.707H145.23V13.0312H147.477V15.707H149.352V17.4648H147.477V23.168C147.477 23.5456 147.516 23.806 147.594 23.9492C147.672 24.0924 147.9 24.1641 148.277 24.1641H149.352V26H147.281C146.786 26 146.402 25.9544 146.129 25.8633C145.855 25.7591 145.647 25.5964 145.504 25.375C145.374 25.1536 145.296 24.8607 145.27 24.4961C145.243 24.1315 145.23 23.6888 145.23 23.168V17.4648H143.902ZM152.695 15.707H154.941V26H152.695V15.707ZM152.598 11.7031H155.039V14.1445H152.598V11.7031ZM162.562 15.4141C163.096 15.4141 163.611 15.5052 164.105 15.6875C164.613 15.8698 165.056 16.1367 165.434 16.4883C165.824 16.8268 166.137 17.2565 166.371 17.7773C166.605 18.2852 166.723 18.8711 166.723 19.5352L164.535 19.5156C164.535 19.1641 164.477 18.8451 164.359 18.5586C164.255 18.2721 164.112 18.0312 163.93 17.8359C163.747 17.6406 163.539 17.4909 163.305 17.3867C163.07 17.2695 162.829 17.2109 162.582 17.2109C162.309 17.2109 162.042 17.2826 161.781 17.4258C161.521 17.556 161.286 17.7708 161.078 18.0703C160.87 18.3568 160.701 18.7279 160.57 19.1836C160.44 19.6393 160.375 20.1927 160.375 20.8438C160.375 21.4818 160.434 22.0286 160.551 22.4844C160.681 22.9271 160.844 23.2917 161.039 23.5781C161.247 23.8646 161.475 24.0729 161.723 24.2031C161.983 24.3203 162.243 24.3789 162.504 24.3789C162.751 24.3789 162.992 24.3268 163.227 24.2227C163.474 24.1185 163.689 23.9753 163.871 23.793C164.053 23.5977 164.203 23.3763 164.32 23.1289C164.438 22.8685 164.496 22.5885 164.496 22.2891L166.742 22.2695C166.742 22.8945 166.618 23.4544 166.371 23.9492C166.124 24.431 165.798 24.8477 165.395 25.1992C164.991 25.5378 164.529 25.7982 164.008 25.9805C163.5 26.1628 162.973 26.2539 162.426 26.2539C161.866 26.2539 161.319 26.1497 160.785 25.9414C160.251 25.7331 159.77 25.4141 159.34 24.9844C158.923 24.5417 158.585 23.9818 158.324 23.3047C158.064 22.6146 157.934 21.7943 157.934 20.8438C157.934 19.9062 158.064 19.099 158.324 18.4219C158.598 17.7448 158.956 17.1849 159.398 16.7422C159.841 16.2865 160.336 15.9544 160.883 15.7461C161.443 15.5247 162.003 15.4141 162.562 15.4141ZM170.73 22.3281C170.73 22.7057 170.789 23.0247 170.906 23.2852C171.036 23.5456 171.199 23.7604 171.395 23.9297C171.59 24.099 171.811 24.2227 172.059 24.3008C172.306 24.3659 172.553 24.3984 172.801 24.3984C173.23 24.3984 173.615 24.3008 173.953 24.1055C174.305 23.9102 174.48 23.6628 174.48 23.3633C174.48 22.8945 174.344 22.543 174.07 22.3086C173.81 22.0742 173.478 21.8919 173.074 21.7617C172.684 21.6185 172.254 21.5013 171.785 21.4102C171.316 21.306 170.88 21.1497 170.477 20.9414C170.086 20.7331 169.754 20.4466 169.48 20.082C169.22 19.7044 169.09 19.1771 169.09 18.5C169.09 18.0312 169.201 17.6081 169.422 17.2305C169.643 16.8529 169.936 16.5339 170.301 16.2734C170.665 16 171.076 15.7982 171.531 15.668C171.987 15.5247 172.456 15.4531 172.938 15.4531C173.406 15.4531 173.862 15.5247 174.305 15.668C174.76 15.8112 175.158 16.0326 175.496 16.332C175.848 16.6315 176.128 17.0156 176.336 17.4844C176.557 17.9531 176.668 18.513 176.668 19.1641H174.656C174.656 18.7865 174.604 18.474 174.5 18.2266C174.409 17.9661 174.279 17.7578 174.109 17.6016C173.94 17.4323 173.751 17.3151 173.543 17.25C173.335 17.1719 173.12 17.1328 172.898 17.1328C172.69 17.1328 172.482 17.1654 172.273 17.2305C172.078 17.2826 171.902 17.3607 171.746 17.4648C171.59 17.569 171.46 17.6927 171.355 17.8359C171.264 17.9792 171.219 18.1354 171.219 18.3047C171.219 18.6562 171.355 18.9232 171.629 19.1055C171.902 19.2747 172.241 19.418 172.645 19.5352C173.048 19.6393 173.491 19.75 173.973 19.8672C174.454 19.9844 174.897 20.1667 175.301 20.4141C175.704 20.6484 176.043 20.9805 176.316 21.4102C176.59 21.8398 176.727 22.4258 176.727 23.168C176.727 23.6497 176.609 24.0794 176.375 24.457C176.154 24.8216 175.854 25.1341 175.477 25.3945C175.099 25.6549 174.669 25.8568 174.188 26C173.706 26.1302 173.211 26.1953 172.703 26.1953C172.182 26.1953 171.674 26.1237 171.18 25.9805C170.685 25.8242 170.242 25.5898 169.852 25.2773C169.461 24.9648 169.142 24.5677 168.895 24.0859C168.66 23.5911 168.543 23.0052 168.543 22.3281H170.73Z" fill="white"/>
</svg>
